<?xml version="1.0" encoding="UTF-8" standalone="no"?><!-- Generator: Gravit.io --><svg xmlns="http://www.w3.org/2000/svg" xmlns:xlink="http://www.w3.org/1999/xlink" style="isolation:isolate" viewBox="0 0 100 100" width="100pt" height="100pt"><defs><clipPath id="_clipPath_1CpPgUN5A72802e4nb0dwvRqtCfdAuZ8"><rect width="100" height="100"/></clipPath></defs><g clip-path="url(#_clipPath_1CpPgUN5A72802e4nb0dwvRqtCfdAuZ8)"><path d=" M 0 50 C 0 22.404 22.404 0 50 0 C 77.596 0 100 22.404 100 50 C 100 77.596 77.596 100 50 100 C 22.404 100 0 77.596 0 50 Z  M 75.16 65.419 L 84.411 56.168 L 73.078 44.835 L 88.806 29.107 L 79.092 19.393 L 63.364 35.12 L 49.564 21.32 L 40.312 30.572 L 54.112 44.372 L 36.689 61.796 L 36.689 61.796 Q 34.376 64.109 32.294 62.027 L 32.294 62.027 L 21.963 51.696 L 12.712 60.948 L 28.902 77.138 L 28.902 77.138 Q 31.523 79.759 34.877 79.721 L 34.877 79.721 L 34.877 79.721 Q 38.231 79.682 40.852 77.061 L 40.852 77.061 L 63.827 54.086 L 75.16 65.419 Z " fill-rule="evenodd" fill="rgb(0,0,0)"/></g></svg>